<mxfile host="app.diagrams.net" modified="2021-11-17T11:23:18.157Z" agent="5.0 (Windows)" etag="zUw3o35yHR22dh8FdziH" version="15.7.4" type="github">
  <diagram id="z2JfVTN-OL97uB6Et5IU" name="Page-1">
    <mxGraphModel dx="1185" dy="608" grid="1" gridSize="10" guides="1" tooltips="1" connect="1" arrows="1" fold="1" page="1" pageScale="1" pageWidth="850" pageHeight="1100" math="0" shadow="0">
      <root>
        <mxCell id="0" />
        <mxCell id="1" parent="0" />
        <mxCell id="w7J-pT1NiXdfO_MxbOrN-2" value="&lt;p style=&quot;margin: 0px ; margin-top: 4px ; text-align: center ; text-decoration: underline&quot;&gt;Strings&lt;/p&gt;&lt;hr&gt;&lt;p style=&quot;margin: 0px ; margin-left: 8px&quot;&gt;activity_transfer_to_budget_payment_voluntary_rationale_text&lt;/p&gt;" style="verticalAlign=top;align=left;overflow=fill;fontSize=12;fontFamily=Helvetica;html=1;" vertex="1" parent="1">
          <mxGeometry x="80" y="160" width="360" height="90" as="geometry" />
        </mxCell>
      </root>
    </mxGraphModel>
  </diagram>
</mxfile>
